<?xml version="1.0" encoding="UTF-8" standalone="no"?>
<svg width="320px" height="320px" viewBox="0 0 320 320" version="1.1" xmlns="http://www.w3.org/2000/svg" xmlns:xlink="http://www.w3.org/1999/xlink">
    <!-- Generator: Sketch 50.2 (55047) - http://www.bohemiancoding.com/sketch -->
    <title>favicon-x2000</title>
    <desc>Created with Sketch.</desc>
    <defs></defs>
    <g id="[Helper]-Guide" stroke="none" stroke-width="1" fill="none" fill-rule="evenodd">
        <g id="logo" transform="translate(-176.000000, -485.000000)">
            <g id="favicons" transform="translate(20.000000, 485.000000)">
                <g id="favicon" transform="translate(156.000000, 0.000000)">
                    <g>
                        <rect id="bckgr" fill="#7518FE" x="0" y="0" width="320" height="320" rx="160"></rect>
                        <path d="M120,78.1126977 C82.3535636,87.2516648 48.1211042,109.053212 20,140 C46.1148962,86.7842796 89.5849152,49.4441466 140,41.5541526 L140,20 L180,20 L180,41.5541526 C230.415085,49.4441466 273.885104,86.7842796 299.999997,139.999995 C271.878896,109.053212 237.646436,87.2516648 200,78.1126977 L200,100 L180,100 L180,140 L180,280 L140,260 L140,140 L140,100 L120,100 L120,78.1126977 Z" id="Combined-Shape" fill="#FFFFFF"></path>
                    </g>
                </g>
            </g>
        </g>
    </g>
</svg>